%TF.GenerationSoftware,KiCad,Pcbnew,7.0.1*%
%TF.CreationDate,2023-03-27T05:29:06+01:00*%
%TF.ProjectId,1,312e6b69-6361-4645-9f70-636258585858,rev?*%
%TF.SameCoordinates,Original*%
%TF.FileFunction,Soldermask,Top*%
%TF.FilePolarity,Negative*%
%FSLAX46Y46*%
G04 Gerber Fmt 4.6, Leading zero omitted, Abs format (unit mm)*
G04 Created by KiCad (PCBNEW 7.0.1) date 2023-03-27 05:29:06*
%MOMM*%
%LPD*%
G01*
G04 APERTURE LIST*
G04 Aperture macros list*
%AMRoundRect*
0 Rectangle with rounded corners*
0 $1 Rounding radius*
0 $2 $3 $4 $5 $6 $7 $8 $9 X,Y pos of 4 corners*
0 Add a 4 corners polygon primitive as box body*
4,1,4,$2,$3,$4,$5,$6,$7,$8,$9,$2,$3,0*
0 Add four circle primitives for the rounded corners*
1,1,$1+$1,$2,$3*
1,1,$1+$1,$4,$5*
1,1,$1+$1,$6,$7*
1,1,$1+$1,$8,$9*
0 Add four rect primitives between the rounded corners*
20,1,$1+$1,$2,$3,$4,$5,0*
20,1,$1+$1,$4,$5,$6,$7,0*
20,1,$1+$1,$6,$7,$8,$9,0*
20,1,$1+$1,$8,$9,$2,$3,0*%
G04 Aperture macros list end*
%ADD10RoundRect,0.140000X0.170000X-0.140000X0.170000X0.140000X-0.170000X0.140000X-0.170000X-0.140000X0*%
%ADD11RoundRect,0.075000X-0.075000X0.125000X-0.075000X-0.125000X0.075000X-0.125000X0.075000X0.125000X0*%
%ADD12RoundRect,0.135000X0.135000X0.185000X-0.135000X0.185000X-0.135000X-0.185000X0.135000X-0.185000X0*%
%ADD13R,1.500000X2.000000*%
%ADD14R,3.800000X2.000000*%
%ADD15RoundRect,0.250000X0.475000X-0.250000X0.475000X0.250000X-0.475000X0.250000X-0.475000X-0.250000X0*%
%ADD16R,1.700000X1.700000*%
%ADD17O,1.700000X1.700000*%
%ADD18RoundRect,0.075000X-0.075000X-0.662500X0.075000X-0.662500X0.075000X0.662500X-0.075000X0.662500X0*%
%ADD19RoundRect,0.075000X-0.662500X-0.075000X0.662500X-0.075000X0.662500X0.075000X-0.662500X0.075000X0*%
%ADD20O,1.800000X1.150000*%
%ADD21O,2.000000X1.450000*%
%ADD22R,1.300000X0.450000*%
%ADD23O,0.800000X0.800000*%
%ADD24RoundRect,0.225000X0.225000X0.250000X-0.225000X0.250000X-0.225000X-0.250000X0.225000X-0.250000X0*%
%ADD25RoundRect,0.140000X0.140000X0.170000X-0.140000X0.170000X-0.140000X-0.170000X0.140000X-0.170000X0*%
%ADD26C,2.200000*%
%ADD27RoundRect,0.135000X-0.135000X-0.185000X0.135000X-0.185000X0.135000X0.185000X-0.135000X0.185000X0*%
%ADD28RoundRect,0.250000X-0.250000X-0.475000X0.250000X-0.475000X0.250000X0.475000X-0.250000X0.475000X0*%
%ADD29RoundRect,0.140000X-0.140000X-0.170000X0.140000X-0.170000X0.140000X0.170000X-0.140000X0.170000X0*%
%ADD30R,1.200000X1.400000*%
%ADD31RoundRect,0.075000X-0.125000X-0.075000X0.125000X-0.075000X0.125000X0.075000X-0.125000X0.075000X0*%
%ADD32RoundRect,0.218750X-0.256250X0.218750X-0.256250X-0.218750X0.256250X-0.218750X0.256250X0.218750X0*%
%ADD33RoundRect,0.075000X0.075000X-0.125000X0.075000X0.125000X-0.075000X0.125000X-0.075000X-0.125000X0*%
G04 APERTURE END LIST*
D10*
%TO.C,C7*%
X108250000Y-66480000D03*
X108250000Y-65520000D03*
%TD*%
D11*
%TO.C,C5*%
X120500000Y-62250000D03*
X120500000Y-62750000D03*
%TD*%
D12*
%TO.C,R2*%
X113270000Y-75250000D03*
X112250000Y-75250000D03*
%TD*%
D13*
%TO.C,U2*%
X128050000Y-71350000D03*
X125750000Y-71350000D03*
D14*
X125750000Y-77650000D03*
D13*
X123450000Y-71350000D03*
%TD*%
D15*
%TO.C,C2*%
X131000000Y-73250000D03*
X131000000Y-71350000D03*
%TD*%
D16*
%TO.C,J3*%
X116300000Y-52000000D03*
D17*
X113760000Y-52000000D03*
X111220000Y-52000000D03*
X108680000Y-52000000D03*
%TD*%
D18*
%TO.C,U1*%
X111750000Y-60837500D03*
X112250000Y-60837500D03*
X112750000Y-60837500D03*
X113250000Y-60837500D03*
X113750000Y-60837500D03*
X114250000Y-60837500D03*
X114750000Y-60837500D03*
X115250000Y-60837500D03*
X115750000Y-60837500D03*
X116250000Y-60837500D03*
X116750000Y-60837500D03*
X117250000Y-60837500D03*
D19*
X118662500Y-62250000D03*
X118662500Y-62750000D03*
X118662500Y-63250000D03*
X118662500Y-63750000D03*
X118662500Y-64250000D03*
X118662500Y-64750000D03*
X118662500Y-65250000D03*
X118662500Y-65750000D03*
X118662500Y-66250000D03*
X118662500Y-66750000D03*
X118662500Y-67250000D03*
X118662500Y-67750000D03*
D18*
X117250000Y-69162500D03*
X116750000Y-69162500D03*
X116250000Y-69162500D03*
X115750000Y-69162500D03*
X115250000Y-69162500D03*
X114750000Y-69162500D03*
X114250000Y-69162500D03*
X113750000Y-69162500D03*
X113250000Y-69162500D03*
X112750000Y-69162500D03*
X112250000Y-69162500D03*
X111750000Y-69162500D03*
D19*
X110337500Y-67750000D03*
X110337500Y-67250000D03*
X110337500Y-66750000D03*
X110337500Y-66250000D03*
X110337500Y-65750000D03*
X110337500Y-65250000D03*
X110337500Y-64750000D03*
X110337500Y-64250000D03*
X110337500Y-63750000D03*
X110337500Y-63250000D03*
X110337500Y-62750000D03*
X110337500Y-62250000D03*
%TD*%
D20*
%TO.C,J1*%
X137950000Y-59875000D03*
D21*
X134150000Y-60025000D03*
X134150000Y-67475000D03*
D20*
X137950000Y-67625000D03*
D22*
X134100000Y-62450000D03*
X134100000Y-63100000D03*
X134100000Y-63750000D03*
X134100000Y-64400000D03*
X134100000Y-65050000D03*
D23*
X135200000Y-61250000D03*
X135200000Y-66250000D03*
%TD*%
D24*
%TO.C,C3*%
X118775000Y-71500000D03*
X117225000Y-71500000D03*
%TD*%
D25*
%TO.C,C9*%
X108230000Y-70837500D03*
X107270000Y-70837500D03*
%TD*%
D26*
%TO.C,H1*%
X102500000Y-78750000D03*
%TD*%
D27*
%TO.C,R3*%
X114750000Y-75250000D03*
X115770000Y-75250000D03*
%TD*%
D28*
%TO.C,C1*%
X125300000Y-68550000D03*
X127200000Y-68550000D03*
%TD*%
D29*
%TO.C,C10*%
X111540000Y-71500000D03*
X112500000Y-71500000D03*
%TD*%
D16*
%TO.C,J4*%
X110200000Y-79500000D03*
D17*
X112740000Y-79500000D03*
X115280000Y-79500000D03*
X117820000Y-79500000D03*
%TD*%
D12*
%TO.C,R1*%
X135770000Y-69750000D03*
X134750000Y-69750000D03*
%TD*%
D25*
%TO.C,C8*%
X108230000Y-69337500D03*
X107270000Y-69337500D03*
%TD*%
D16*
%TO.C,J2*%
X132300000Y-52000000D03*
D17*
X129760000Y-52000000D03*
X127220000Y-52000000D03*
X124680000Y-52000000D03*
%TD*%
D30*
%TO.C,Y1*%
X102650000Y-62400000D03*
X102650000Y-64600000D03*
X104350000Y-64600000D03*
X104350000Y-62400000D03*
%TD*%
D26*
%TO.C,H3*%
X102500000Y-52500000D03*
%TD*%
D10*
%TO.C,C12*%
X106250000Y-64960000D03*
X106250000Y-64000000D03*
%TD*%
D31*
%TO.C,C6*%
X111750000Y-59250000D03*
X112250000Y-59250000D03*
%TD*%
D26*
%TO.C,H4*%
X137250000Y-52500000D03*
%TD*%
D10*
%TO.C,C11*%
X106250000Y-62960000D03*
X106250000Y-62000000D03*
%TD*%
D32*
%TO.C,D1*%
X134750000Y-71675000D03*
X134750000Y-73250000D03*
%TD*%
D26*
%TO.C,H2*%
X137250000Y-78750000D03*
%TD*%
D32*
%TO.C,FB1*%
X109750000Y-69337500D03*
X109750000Y-70912500D03*
%TD*%
D33*
%TO.C,C4*%
X108500000Y-62250000D03*
X108500000Y-61750000D03*
%TD*%
M02*
