M48
; DRILL file {KiCad 7.0.1} date Mon Mar 27 05:29:02 2023
; FORMAT={-:-/ absolute / metric / decimal}
; #@! TF.CreationDate,2023-03-27T05:29:02+01:00
; #@! TF.GenerationSoftware,Kicad,Pcbnew,7.0.1
; #@! TF.FileFunction,MixedPlating,1,2
FMAT,2
METRIC
; #@! TA.AperFunction,Plated,PTH,ViaDrill
T1C0.300
; #@! TA.AperFunction,Plated,PTH,ComponentDrill
T2C0.550
; #@! TA.AperFunction,Plated,PTH,ComponentDrill
T3C0.850
; #@! TA.AperFunction,Plated,PTH,ComponentDrill
T4C1.000
; #@! TA.AperFunction,NonPlated,NPTH,ComponentDrill
T5C0.800
; #@! TA.AperFunction,NonPlated,NPTH,ComponentDrill
T6C2.200
%
G90
G05
T1
X102.75Y-66.0
X104.25Y-61.25
X106.25Y-61.25
X107.0Y-64.0
X107.25Y-68.75
X107.25Y-71.5
X108.5Y-61.0
X111.55Y-76.5
X111.582Y-65.95
X112.25Y-62.25
X112.95Y-76.5
X113.25Y-71.25
X115.0Y-73.75
X116.5Y-73.75
X116.75Y-68.0
X121.25Y-63.1
X127.5Y-72.75
X128.5Y-68.25
X128.5Y-69.25
X128.5Y-72.75
X132.25Y-63.0
X132.25Y-64.85
X132.25Y-71.5
X133.0Y-62.25
X133.86Y-69.662
X135.451Y-60.0
X135.451Y-67.25
X136.25Y-68.75
X136.75Y-70.5
X137.049Y-61.0
X137.049Y-67.75
T4
X108.68Y-52.0
X110.2Y-79.5
X111.22Y-52.0
X112.74Y-79.5
X113.76Y-52.0
X115.28Y-79.5
X116.3Y-52.0
X117.82Y-79.5
X124.68Y-52.0
X127.22Y-52.0
X129.76Y-52.0
X132.3Y-52.0
T5
X135.2Y-61.25
X135.2Y-66.25
T6
X102.5Y-52.5
X102.5Y-78.75
X137.25Y-52.5
X137.25Y-78.75
T2
G00X137.625Y-59.875
M15
G01X138.275Y-59.875
M16
G05
G00X137.625Y-67.625
M15
G01X138.275Y-67.625
M16
G05
T3
G00X133.875Y-60.025
M15
G01X134.425Y-60.025
M16
G05
G00X133.875Y-67.475
M15
G01X134.425Y-67.475
M16
G05
T0
M30
