%TF.GenerationSoftware,KiCad,Pcbnew,7.0.1*%
%TF.CreationDate,2023-03-27T05:29:06+01:00*%
%TF.ProjectId,1,312e6b69-6361-4645-9f70-636258585858,rev?*%
%TF.SameCoordinates,Original*%
%TF.FileFunction,Copper,L1,Top*%
%TF.FilePolarity,Positive*%
%FSLAX46Y46*%
G04 Gerber Fmt 4.6, Leading zero omitted, Abs format (unit mm)*
G04 Created by KiCad (PCBNEW 7.0.1) date 2023-03-27 05:29:06*
%MOMM*%
%LPD*%
G01*
G04 APERTURE LIST*
G04 Aperture macros list*
%AMRoundRect*
0 Rectangle with rounded corners*
0 $1 Rounding radius*
0 $2 $3 $4 $5 $6 $7 $8 $9 X,Y pos of 4 corners*
0 Add a 4 corners polygon primitive as box body*
4,1,4,$2,$3,$4,$5,$6,$7,$8,$9,$2,$3,0*
0 Add four circle primitives for the rounded corners*
1,1,$1+$1,$2,$3*
1,1,$1+$1,$4,$5*
1,1,$1+$1,$6,$7*
1,1,$1+$1,$8,$9*
0 Add four rect primitives between the rounded corners*
20,1,$1+$1,$2,$3,$4,$5,0*
20,1,$1+$1,$4,$5,$6,$7,0*
20,1,$1+$1,$6,$7,$8,$9,0*
20,1,$1+$1,$8,$9,$2,$3,0*%
G04 Aperture macros list end*
%TA.AperFunction,SMDPad,CuDef*%
%ADD10RoundRect,0.140000X0.170000X-0.140000X0.170000X0.140000X-0.170000X0.140000X-0.170000X-0.140000X0*%
%TD*%
%TA.AperFunction,SMDPad,CuDef*%
%ADD11RoundRect,0.075000X-0.075000X0.125000X-0.075000X-0.125000X0.075000X-0.125000X0.075000X0.125000X0*%
%TD*%
%TA.AperFunction,SMDPad,CuDef*%
%ADD12RoundRect,0.135000X0.135000X0.185000X-0.135000X0.185000X-0.135000X-0.185000X0.135000X-0.185000X0*%
%TD*%
%TA.AperFunction,SMDPad,CuDef*%
%ADD13R,1.500000X2.000000*%
%TD*%
%TA.AperFunction,SMDPad,CuDef*%
%ADD14R,3.800000X2.000000*%
%TD*%
%TA.AperFunction,SMDPad,CuDef*%
%ADD15RoundRect,0.250000X0.475000X-0.250000X0.475000X0.250000X-0.475000X0.250000X-0.475000X-0.250000X0*%
%TD*%
%TA.AperFunction,ComponentPad*%
%ADD16R,1.700000X1.700000*%
%TD*%
%TA.AperFunction,ComponentPad*%
%ADD17O,1.700000X1.700000*%
%TD*%
%TA.AperFunction,SMDPad,CuDef*%
%ADD18RoundRect,0.075000X-0.075000X-0.662500X0.075000X-0.662500X0.075000X0.662500X-0.075000X0.662500X0*%
%TD*%
%TA.AperFunction,SMDPad,CuDef*%
%ADD19RoundRect,0.075000X-0.662500X-0.075000X0.662500X-0.075000X0.662500X0.075000X-0.662500X0.075000X0*%
%TD*%
%TA.AperFunction,ComponentPad*%
%ADD20O,1.800000X1.150000*%
%TD*%
%TA.AperFunction,ComponentPad*%
%ADD21O,2.000000X1.450000*%
%TD*%
%TA.AperFunction,SMDPad,CuDef*%
%ADD22R,1.300000X0.450000*%
%TD*%
%TA.AperFunction,SMDPad,CuDef*%
%ADD23RoundRect,0.225000X0.225000X0.250000X-0.225000X0.250000X-0.225000X-0.250000X0.225000X-0.250000X0*%
%TD*%
%TA.AperFunction,SMDPad,CuDef*%
%ADD24RoundRect,0.140000X0.140000X0.170000X-0.140000X0.170000X-0.140000X-0.170000X0.140000X-0.170000X0*%
%TD*%
%TA.AperFunction,SMDPad,CuDef*%
%ADD25RoundRect,0.135000X-0.135000X-0.185000X0.135000X-0.185000X0.135000X0.185000X-0.135000X0.185000X0*%
%TD*%
%TA.AperFunction,SMDPad,CuDef*%
%ADD26RoundRect,0.250000X-0.250000X-0.475000X0.250000X-0.475000X0.250000X0.475000X-0.250000X0.475000X0*%
%TD*%
%TA.AperFunction,SMDPad,CuDef*%
%ADD27RoundRect,0.140000X-0.140000X-0.170000X0.140000X-0.170000X0.140000X0.170000X-0.140000X0.170000X0*%
%TD*%
%TA.AperFunction,SMDPad,CuDef*%
%ADD28R,1.200000X1.400000*%
%TD*%
%TA.AperFunction,SMDPad,CuDef*%
%ADD29RoundRect,0.075000X-0.125000X-0.075000X0.125000X-0.075000X0.125000X0.075000X-0.125000X0.075000X0*%
%TD*%
%TA.AperFunction,SMDPad,CuDef*%
%ADD30RoundRect,0.218750X-0.256250X0.218750X-0.256250X-0.218750X0.256250X-0.218750X0.256250X0.218750X0*%
%TD*%
%TA.AperFunction,SMDPad,CuDef*%
%ADD31RoundRect,0.075000X0.075000X-0.125000X0.075000X0.125000X-0.075000X0.125000X-0.075000X-0.125000X0*%
%TD*%
%TA.AperFunction,ViaPad*%
%ADD32C,0.700000*%
%TD*%
%TA.AperFunction,Conductor*%
%ADD33C,0.300000*%
%TD*%
%TA.AperFunction,Conductor*%
%ADD34C,0.500000*%
%TD*%
%TA.AperFunction,Conductor*%
%ADD35C,0.200000*%
%TD*%
G04 APERTURE END LIST*
D10*
%TO.P,C7,1*%
%TO.N,+3.3VA*%
X108250000Y-66480000D03*
%TO.P,C7,2*%
%TO.N,GND*%
X108250000Y-65520000D03*
%TD*%
D11*
%TO.P,C5,1*%
%TO.N,+3.3V*%
X120500000Y-62250000D03*
%TO.P,C5,2*%
%TO.N,GND*%
X120500000Y-62750000D03*
%TD*%
D12*
%TO.P,R2,1*%
%TO.N,+3.3V*%
X113270000Y-75250000D03*
%TO.P,R2,2*%
%TO.N,/I2C2_SCL*%
X112250000Y-75250000D03*
%TD*%
D13*
%TO.P,U2,1,GND*%
%TO.N,GND*%
X128050000Y-71350000D03*
%TO.P,U2,2,VO*%
%TO.N,+3.3V*%
X125750000Y-71350000D03*
D14*
X125750000Y-77650000D03*
D13*
%TO.P,U2,3,VI*%
%TO.N,VBUS*%
X123450000Y-71350000D03*
%TD*%
D15*
%TO.P,C2,1*%
%TO.N,+3.3V*%
X131000000Y-73250000D03*
%TO.P,C2,2*%
%TO.N,GND*%
X131000000Y-71350000D03*
%TD*%
D16*
%TO.P,J3,1,Pin_1*%
%TO.N,+3.3V*%
X116300000Y-52000000D03*
D17*
%TO.P,J3,2,Pin_2*%
%TO.N,/USART1_TX*%
X113760000Y-52000000D03*
%TO.P,J3,3,Pin_3*%
%TO.N,/USART1_RX*%
X111220000Y-52000000D03*
%TO.P,J3,4,Pin_4*%
%TO.N,GND*%
X108680000Y-52000000D03*
%TD*%
D18*
%TO.P,U1,48,VDD*%
%TO.N,+3.3V*%
X111750000Y-60837500D03*
%TO.P,U1,47,VSS*%
%TO.N,GND*%
X112250000Y-60837500D03*
%TO.P,U1,46,PB9*%
%TO.N,unconnected-(U1-PB9-Pad46)*%
X112750000Y-60837500D03*
%TO.P,U1,45,PB8*%
%TO.N,unconnected-(U1-PB8-Pad45)*%
X113250000Y-60837500D03*
%TO.P,U1,44,PH3*%
%TO.N,unconnected-(U1-PH3-Pad44)*%
X113750000Y-60837500D03*
%TO.P,U1,43,PB7*%
%TO.N,/USART1_RX*%
X114250000Y-60837500D03*
%TO.P,U1,42,PB6*%
%TO.N,/USART1_TX*%
X114750000Y-60837500D03*
%TO.P,U1,41,PB5*%
%TO.N,unconnected-(U1-PB5-Pad41)*%
X115250000Y-60837500D03*
%TO.P,U1,40,PB4*%
%TO.N,unconnected-(U1-PB4-Pad40)*%
X115750000Y-60837500D03*
%TO.P,U1,39,PB3*%
%TO.N,unconnected-(U1-PB3-Pad39)*%
X116250000Y-60837500D03*
%TO.P,U1,38,PA15*%
%TO.N,unconnected-(U1-PA15-Pad38)*%
X116750000Y-60837500D03*
%TO.P,U1,37,PA14*%
%TO.N,/SWCLK*%
X117250000Y-60837500D03*
D19*
%TO.P,U1,36,VDDUSB*%
%TO.N,+3.3V*%
X118662500Y-62250000D03*
%TO.P,U1,35,VSS*%
%TO.N,GND*%
X118662500Y-62750000D03*
%TO.P,U1,34,PA13*%
%TO.N,/SWDIO*%
X118662500Y-63250000D03*
%TO.P,U1,33,PA12*%
%TO.N,/USB_D+*%
X118662500Y-63750000D03*
%TO.P,U1,32,PA11*%
%TO.N,/USB_D-*%
X118662500Y-64250000D03*
%TO.P,U1,31,PA10*%
%TO.N,unconnected-(U1-PA10-Pad31)*%
X118662500Y-64750000D03*
%TO.P,U1,30,PA9*%
%TO.N,unconnected-(U1-PA9-Pad30)*%
X118662500Y-65250000D03*
%TO.P,U1,29,PA8*%
%TO.N,unconnected-(U1-PA8-Pad29)*%
X118662500Y-65750000D03*
%TO.P,U1,28,PB15*%
%TO.N,unconnected-(U1-PB15-Pad28)*%
X118662500Y-66250000D03*
%TO.P,U1,27,PB14*%
%TO.N,unconnected-(U1-PB14-Pad27)*%
X118662500Y-66750000D03*
%TO.P,U1,26,PB13*%
%TO.N,unconnected-(U1-PB13-Pad26)*%
X118662500Y-67250000D03*
%TO.P,U1,25,PB12*%
%TO.N,unconnected-(U1-PB12-Pad25)*%
X118662500Y-67750000D03*
D18*
%TO.P,U1,24,VDD*%
%TO.N,+3.3V*%
X117250000Y-69162500D03*
%TO.P,U1,23,VSS*%
%TO.N,GND*%
X116750000Y-69162500D03*
%TO.P,U1,22,PB11*%
%TO.N,/I2C2_SDA*%
X116250000Y-69162500D03*
%TO.P,U1,21,PB10*%
%TO.N,/I2C2_SCL*%
X115750000Y-69162500D03*
%TO.P,U1,20,PB2*%
%TO.N,unconnected-(U1-PB2-Pad20)*%
X115250000Y-69162500D03*
%TO.P,U1,19,PB1*%
%TO.N,unconnected-(U1-PB1-Pad19)*%
X114750000Y-69162500D03*
%TO.P,U1,18,PB0*%
%TO.N,unconnected-(U1-PB0-Pad18)*%
X114250000Y-69162500D03*
%TO.P,U1,17,PA7*%
%TO.N,unconnected-(U1-PA7-Pad17)*%
X113750000Y-69162500D03*
%TO.P,U1,16,PA6*%
%TO.N,unconnected-(U1-PA6-Pad16)*%
X113250000Y-69162500D03*
%TO.P,U1,15,PA5*%
%TO.N,unconnected-(U1-PA5-Pad15)*%
X112750000Y-69162500D03*
%TO.P,U1,14,PA4*%
%TO.N,unconnected-(U1-PA4-Pad14)*%
X112250000Y-69162500D03*
%TO.P,U1,13,PA3*%
%TO.N,unconnected-(U1-PA3-Pad13)*%
X111750000Y-69162500D03*
D19*
%TO.P,U1,12,PA2*%
%TO.N,unconnected-(U1-PA2-Pad12)*%
X110337500Y-67750000D03*
%TO.P,U1,11,PA1*%
%TO.N,unconnected-(U1-PA1-Pad11)*%
X110337500Y-67250000D03*
%TO.P,U1,10,PA0*%
%TO.N,unconnected-(U1-PA0-Pad10)*%
X110337500Y-66750000D03*
%TO.P,U1,9,VDDA*%
%TO.N,+3.3VA*%
X110337500Y-66250000D03*
%TO.P,U1,8,VSSA*%
%TO.N,GND*%
X110337500Y-65750000D03*
%TO.P,U1,7,NRST*%
%TO.N,/NRST*%
X110337500Y-65250000D03*
%TO.P,U1,6,PH1*%
%TO.N,/HSE_OUT*%
X110337500Y-64750000D03*
%TO.P,U1,5,PH0*%
%TO.N,/HSE_IN*%
X110337500Y-64250000D03*
%TO.P,U1,4,PC15*%
%TO.N,unconnected-(U1-PC15-Pad4)*%
X110337500Y-63750000D03*
%TO.P,U1,3,PC14*%
%TO.N,unconnected-(U1-PC14-Pad3)*%
X110337500Y-63250000D03*
%TO.P,U1,2,PC13*%
%TO.N,unconnected-(U1-PC13-Pad2)*%
X110337500Y-62750000D03*
%TO.P,U1,1,VBAT*%
%TO.N,+3.3V*%
X110337500Y-62250000D03*
%TD*%
D20*
%TO.P,J1,6,Shield*%
%TO.N,unconnected-(J1-Shield-Pad6)*%
X137950000Y-59875000D03*
D21*
X134150000Y-60025000D03*
X134150000Y-67475000D03*
D20*
X137950000Y-67625000D03*
D22*
%TO.P,J1,5,GND*%
%TO.N,GND*%
X134100000Y-62450000D03*
%TO.P,J1,4,ID*%
%TO.N,unconnected-(J1-ID-Pad4)*%
X134100000Y-63100000D03*
%TO.P,J1,3,D+*%
%TO.N,/USB_D+*%
X134100000Y-63750000D03*
%TO.P,J1,2,D-*%
%TO.N,/USB_D-*%
X134100000Y-64400000D03*
%TO.P,J1,1,VBUS*%
%TO.N,VBUS*%
X134100000Y-65050000D03*
%TD*%
D23*
%TO.P,C3,1*%
%TO.N,+3.3V*%
X118775000Y-71500000D03*
%TO.P,C3,2*%
%TO.N,GND*%
X117225000Y-71500000D03*
%TD*%
D24*
%TO.P,C9,1*%
%TO.N,+3.3V*%
X108230000Y-70837500D03*
%TO.P,C9,2*%
%TO.N,GND*%
X107270000Y-70837500D03*
%TD*%
D25*
%TO.P,R3,1*%
%TO.N,+3.3V*%
X114750000Y-75250000D03*
%TO.P,R3,2*%
%TO.N,/I2C2_SDA*%
X115770000Y-75250000D03*
%TD*%
D26*
%TO.P,C1,1*%
%TO.N,VBUS*%
X125300000Y-68550000D03*
%TO.P,C1,2*%
%TO.N,GND*%
X127200000Y-68550000D03*
%TD*%
D27*
%TO.P,C10,1*%
%TO.N,/NRST*%
X111540000Y-71500000D03*
%TO.P,C10,2*%
%TO.N,GND*%
X112500000Y-71500000D03*
%TD*%
D16*
%TO.P,J4,1,Pin_1*%
%TO.N,+3.3V*%
X110200000Y-79500000D03*
D17*
%TO.P,J4,2,Pin_2*%
%TO.N,/I2C2_SCL*%
X112740000Y-79500000D03*
%TO.P,J4,3,Pin_3*%
%TO.N,/I2C2_SDA*%
X115280000Y-79500000D03*
%TO.P,J4,4,Pin_4*%
%TO.N,GND*%
X117820000Y-79500000D03*
%TD*%
D12*
%TO.P,R1,1*%
%TO.N,/PWR_LED_K*%
X135770000Y-69750000D03*
%TO.P,R1,2*%
%TO.N,GND*%
X134750000Y-69750000D03*
%TD*%
D24*
%TO.P,C8,1*%
%TO.N,+3.3VA*%
X108230000Y-69337500D03*
%TO.P,C8,2*%
%TO.N,GND*%
X107270000Y-69337500D03*
%TD*%
D16*
%TO.P,J2,1,Pin_1*%
%TO.N,+3.3V*%
X132300000Y-52000000D03*
D17*
%TO.P,J2,2,Pin_2*%
%TO.N,/SWDIO*%
X129760000Y-52000000D03*
%TO.P,J2,3,Pin_3*%
%TO.N,/SWCLK*%
X127220000Y-52000000D03*
%TO.P,J2,4,Pin_4*%
%TO.N,GND*%
X124680000Y-52000000D03*
%TD*%
D28*
%TO.P,Y1,1,1*%
%TO.N,/HSE_IN*%
X102650000Y-62400000D03*
%TO.P,Y1,2,2*%
%TO.N,GND*%
X102650000Y-64600000D03*
%TO.P,Y1,3,3*%
%TO.N,/HSE_OUT*%
X104350000Y-64600000D03*
%TO.P,Y1,4,4*%
%TO.N,GND*%
X104350000Y-62400000D03*
%TD*%
D10*
%TO.P,C12,1*%
%TO.N,/HSE_OUT*%
X106250000Y-64960000D03*
%TO.P,C12,2*%
%TO.N,GND*%
X106250000Y-64000000D03*
%TD*%
D29*
%TO.P,C6,1*%
%TO.N,+3.3V*%
X111750000Y-59250000D03*
%TO.P,C6,2*%
%TO.N,GND*%
X112250000Y-59250000D03*
%TD*%
D10*
%TO.P,C11,1*%
%TO.N,/HSE_IN*%
X106250000Y-62960000D03*
%TO.P,C11,2*%
%TO.N,GND*%
X106250000Y-62000000D03*
%TD*%
D30*
%TO.P,D1,1,K*%
%TO.N,/PWR_LED_K*%
X134750000Y-71675000D03*
%TO.P,D1,2,A*%
%TO.N,+3.3V*%
X134750000Y-73250000D03*
%TD*%
%TO.P,FB1,1*%
%TO.N,+3.3VA*%
X109750000Y-69337500D03*
%TO.P,FB1,2*%
%TO.N,+3.3V*%
X109750000Y-70912500D03*
%TD*%
D31*
%TO.P,C4,1*%
%TO.N,+3.3V*%
X108500000Y-62250000D03*
%TO.P,C4,2*%
%TO.N,GND*%
X108500000Y-61750000D03*
%TD*%
D32*
%TO.N,unconnected-(J1-Shield-Pad6)*%
X132250000Y-63000000D03*
X132250000Y-64849501D03*
X135450500Y-67250000D03*
X137049500Y-67750000D03*
X135450500Y-60000000D03*
X137049500Y-61000000D03*
%TO.N,GND*%
X112250000Y-62250000D03*
%TO.N,+3.3V*%
X136750000Y-70500000D03*
X136250000Y-68750000D03*
%TO.N,GND*%
X121250000Y-63100500D03*
X108500000Y-61000000D03*
X111582366Y-65949500D03*
X104250000Y-61250000D03*
X102750000Y-66000000D03*
%TO.N,+3.3V*%
X112949500Y-76500000D03*
X111550500Y-76500000D03*
X115000000Y-73750000D03*
X116500000Y-73750000D03*
%TO.N,GND*%
X128500000Y-72750000D03*
X132250000Y-71500000D03*
X116750000Y-68000000D03*
X107250000Y-71500000D03*
X128500000Y-69250000D03*
X107000000Y-64000000D03*
X133860000Y-69662500D03*
X128500000Y-68250000D03*
X106250000Y-61250000D03*
X127500000Y-72750000D03*
X113250000Y-71250000D03*
X107250000Y-68750000D03*
X133000000Y-62250000D03*
%TD*%
D33*
%TO.N,unconnected-(J1-Shield-Pad6)*%
X132725000Y-60025000D02*
X134150000Y-60025000D01*
X132250000Y-60500000D02*
X132725000Y-60025000D01*
X132250000Y-63000000D02*
X132250000Y-60500000D01*
X132250000Y-67250000D02*
X132250000Y-64650001D01*
X132250000Y-64650001D02*
X132250000Y-64849501D01*
X132475000Y-67475000D02*
X132250000Y-67250000D01*
X134150000Y-67475000D02*
X132475000Y-67475000D01*
X134375000Y-67250000D02*
X134150000Y-67475000D01*
X135450500Y-67250000D02*
X134375000Y-67250000D01*
X137174500Y-67625000D02*
X137049500Y-67750000D01*
X137950000Y-67625000D02*
X137174500Y-67625000D01*
X137950000Y-60950000D02*
X137950000Y-67625000D01*
X137950000Y-60950000D02*
X137950000Y-59875000D01*
X138000000Y-61000000D02*
X137950000Y-60950000D01*
X137049500Y-61000000D02*
X138000000Y-61000000D01*
X135425500Y-60025000D02*
X135450500Y-60000000D01*
X134150000Y-60025000D02*
X135425500Y-60025000D01*
D34*
%TO.N,+3.3V*%
X136250000Y-57500000D02*
X136250000Y-68750000D01*
X132300000Y-52000000D02*
X132300000Y-53450000D01*
X132300000Y-53450000D02*
X132250000Y-53500000D01*
X132250000Y-53500000D02*
X136250000Y-57500000D01*
X136750000Y-70500000D02*
X136750000Y-74000000D01*
D33*
%TO.N,/HSE_OUT*%
X104710000Y-64960000D02*
X104350000Y-64600000D01*
X106250000Y-64960000D02*
X104710000Y-64960000D01*
X106290000Y-65000000D02*
X106250000Y-64960000D01*
X110337500Y-64750000D02*
X107500000Y-64750000D01*
X107500000Y-64750000D02*
X107250000Y-65000000D01*
X107250000Y-65000000D02*
X106290000Y-65000000D01*
D34*
%TO.N,+3.3V*%
X135500000Y-75250000D02*
X133500000Y-75250000D01*
X133500000Y-73250000D02*
X133500000Y-75250000D01*
X133500000Y-75250000D02*
X133500000Y-79500000D01*
X119250000Y-78000000D02*
X119250000Y-73750000D01*
X132250000Y-80750000D02*
X122000000Y-80750000D01*
X133500000Y-79500000D02*
X132250000Y-80750000D01*
X122000000Y-80750000D02*
X119250000Y-78000000D01*
X133500000Y-73250000D02*
X134750000Y-73250000D01*
X131000000Y-73250000D02*
X133500000Y-73250000D01*
X117250000Y-50500000D02*
X130800000Y-50500000D01*
X116300000Y-51450000D02*
X117250000Y-50500000D01*
X130800000Y-50500000D02*
X132300000Y-52000000D01*
X116300000Y-52000000D02*
X116300000Y-51450000D01*
D33*
%TO.N,GND*%
X112250000Y-62250000D02*
X112250000Y-60837500D01*
X112500000Y-59750000D02*
X112500000Y-59250000D01*
X112500000Y-59250000D02*
X112300000Y-59250000D01*
X112498959Y-59750000D02*
X112500000Y-59750000D01*
X112250000Y-59998959D02*
X112498959Y-59750000D01*
X112250000Y-60837500D02*
X112250000Y-59998959D01*
D34*
%TO.N,+3.3V*%
X136750000Y-74000000D02*
X135500000Y-75250000D01*
D33*
%TO.N,GND*%
X121149500Y-63000000D02*
X121250000Y-63100500D01*
X120500000Y-63000000D02*
X121149500Y-63000000D01*
X108500000Y-61000000D02*
X108500000Y-61700000D01*
%TO.N,+3.3V*%
X108500000Y-62500000D02*
X108500000Y-62300000D01*
X109000000Y-62500000D02*
X108500000Y-62500000D01*
X109250000Y-62250000D02*
X109000000Y-62500000D01*
X110337500Y-62250000D02*
X109250000Y-62250000D01*
%TO.N,GND*%
X111250000Y-65750000D02*
X110337500Y-65750000D01*
X111449500Y-65949500D02*
X111250000Y-65750000D01*
X111582366Y-65949500D02*
X111449500Y-65949500D01*
X104350000Y-61350000D02*
X104250000Y-61250000D01*
X104350000Y-62400000D02*
X104350000Y-61350000D01*
X102650000Y-65900000D02*
X102750000Y-66000000D01*
X102650000Y-64600000D02*
X102650000Y-65900000D01*
%TO.N,/SWCLK*%
X117250000Y-60837500D02*
X117250000Y-59750000D01*
X117250000Y-59750000D02*
X122250000Y-54750000D01*
X127220000Y-53280000D02*
X127220000Y-52000000D01*
X125750000Y-54750000D02*
X127220000Y-53280000D01*
X122250000Y-54750000D02*
X125750000Y-54750000D01*
%TO.N,/SWDIO*%
X123573959Y-56000000D02*
X127250000Y-56000000D01*
X129760000Y-53490000D02*
X129760000Y-52000000D01*
X117501041Y-62072918D02*
X123573959Y-56000000D01*
X117501041Y-62927082D02*
X117501041Y-62072918D01*
X127250000Y-56000000D02*
X129760000Y-53490000D01*
X117823959Y-63250000D02*
X117501041Y-62927082D01*
X118662500Y-63250000D02*
X117823959Y-63250000D01*
D34*
%TO.N,/PWR_LED_K*%
X135770000Y-70230000D02*
X135770000Y-69750000D01*
X134750000Y-71250000D02*
X135770000Y-70230000D01*
X134750000Y-71675000D02*
X134750000Y-71250000D01*
%TO.N,+3.3V*%
X110200000Y-71800000D02*
X110200000Y-79500000D01*
X110250000Y-71750000D02*
X110200000Y-71800000D01*
X109750000Y-71250000D02*
X110250000Y-71750000D01*
X109750000Y-70912500D02*
X109750000Y-71250000D01*
%TO.N,+3.3VA*%
X108230000Y-66500000D02*
X108250000Y-66480000D01*
X108230000Y-69337500D02*
X108230000Y-66500000D01*
X109750000Y-69337500D02*
X108230000Y-69337500D01*
%TO.N,+3.3V*%
X108305000Y-70912500D02*
X108230000Y-70837500D01*
X109750000Y-70912500D02*
X108305000Y-70912500D01*
X108750000Y-76500000D02*
X108230000Y-75980000D01*
X111550500Y-76500000D02*
X108750000Y-76500000D01*
X113250000Y-76500000D02*
X112949500Y-76500000D01*
X113270000Y-76480000D02*
X113250000Y-76500000D01*
X108230000Y-75980000D02*
X108230000Y-70837500D01*
X113270000Y-75250000D02*
X113270000Y-76480000D01*
X114750000Y-75250000D02*
X113270000Y-75250000D01*
X114750000Y-74000000D02*
X115000000Y-73750000D01*
X114750000Y-75250000D02*
X114750000Y-74000000D01*
X119250000Y-73750000D02*
X116500000Y-73750000D01*
X119250000Y-73750000D02*
X119250000Y-71975000D01*
X119250000Y-71975000D02*
X118775000Y-71500000D01*
D33*
%TO.N,GND*%
X109000000Y-65500000D02*
X108270000Y-65500000D01*
X109250000Y-65750000D02*
X109000000Y-65500000D01*
X110337500Y-65750000D02*
X109250000Y-65750000D01*
%TO.N,+3.3V*%
X119750000Y-62000000D02*
X120500000Y-62000000D01*
X120500000Y-62000000D02*
X120500000Y-62200000D01*
X111750000Y-60000000D02*
X111500000Y-59750000D01*
X118662500Y-62250000D02*
X119500000Y-62250000D01*
X117250000Y-69162500D02*
X117250000Y-70000000D01*
X118000000Y-70750000D02*
X118750000Y-70750000D01*
X111500000Y-59750000D02*
X111500000Y-59250000D01*
X117250000Y-70000000D02*
X118000000Y-70750000D01*
X111750000Y-60837500D02*
X111750000Y-60000000D01*
X119500000Y-62250000D02*
X119750000Y-62000000D01*
X111500000Y-59250000D02*
X111700000Y-59250000D01*
X118750000Y-71475000D02*
X118775000Y-71500000D01*
X118750000Y-70750000D02*
X118750000Y-71475000D01*
%TO.N,GND*%
X112500000Y-71500000D02*
X113000000Y-71500000D01*
X106250000Y-62000000D02*
X106250000Y-61250000D01*
X113000000Y-71500000D02*
X113250000Y-71250000D01*
X133200000Y-62450000D02*
X133000000Y-62250000D01*
X107270000Y-70837500D02*
X107270000Y-71480000D01*
X106250000Y-64000000D02*
X107000000Y-64000000D01*
X107270000Y-69337500D02*
X107270000Y-68770000D01*
X133947500Y-69750000D02*
X133860000Y-69662500D01*
X116750000Y-69162500D02*
X116750000Y-68000000D01*
X117225000Y-70725000D02*
X117225000Y-71500000D01*
X134750000Y-69750000D02*
X133947500Y-69750000D01*
X134100000Y-62450000D02*
X133200000Y-62450000D01*
X108270000Y-65500000D02*
X108250000Y-65520000D01*
X119750000Y-63000000D02*
X120500000Y-63000000D01*
X119501041Y-62750000D02*
X119750000Y-62998959D01*
X116750000Y-69162500D02*
X116750000Y-70250000D01*
X116750000Y-70250000D02*
X117225000Y-70725000D01*
X118662500Y-62750000D02*
X119501041Y-62750000D01*
X107270000Y-68770000D02*
X107250000Y-68750000D01*
X107270000Y-71480000D02*
X107250000Y-71500000D01*
X120500000Y-63000000D02*
X120500000Y-62800000D01*
X119750000Y-62998959D02*
X119750000Y-63000000D01*
%TO.N,+3.3VA*%
X110337500Y-66250000D02*
X109250000Y-66250000D01*
X109020000Y-66480000D02*
X108250000Y-66480000D01*
X109250000Y-66250000D02*
X109020000Y-66480000D01*
D35*
%TO.N,/USB_D-*%
X118712499Y-64200001D02*
X133150000Y-64200001D01*
X133150000Y-64275000D02*
X133975000Y-64275000D01*
X133150000Y-64200001D02*
X133150000Y-64275000D01*
X133975000Y-64275000D02*
X134100000Y-64400000D01*
X118662500Y-64250000D02*
X118712499Y-64200001D01*
%TO.N,/USB_D+*%
X118662500Y-63750000D02*
X134100000Y-63750000D01*
D33*
%TO.N,/USART1_TX*%
X114750000Y-55500000D02*
X113750000Y-54500000D01*
X113760000Y-54490000D02*
X113760000Y-52000000D01*
X113750000Y-54500000D02*
X113760000Y-54490000D01*
X114750000Y-60837500D02*
X114750000Y-55500000D01*
%TO.N,/USART1_RX*%
X114250000Y-55750000D02*
X113250000Y-54750000D01*
X113250000Y-54750000D02*
X112250000Y-54750000D01*
X112250000Y-54750000D02*
X111220000Y-53720000D01*
X114250000Y-60837500D02*
X114250000Y-55750000D01*
X111220000Y-53720000D02*
X111220000Y-52000000D01*
%TO.N,/I2C2_SCL*%
X112250000Y-75250000D02*
X112250000Y-77500000D01*
X114251041Y-71500000D02*
X112250000Y-73501041D01*
X115750000Y-69162500D02*
X115750000Y-70500000D01*
X112250000Y-73501041D02*
X112250000Y-75250000D01*
X112250000Y-77500000D02*
X112740000Y-77990000D01*
X114750000Y-71500000D02*
X114251041Y-71500000D01*
X115750000Y-70500000D02*
X114750000Y-71500000D01*
X112740000Y-77990000D02*
X112740000Y-79500000D01*
%TO.N,/I2C2_SDA*%
X115280000Y-78030000D02*
X115250000Y-78000000D01*
X115770000Y-71230000D02*
X116250000Y-70750000D01*
X115770000Y-77480000D02*
X115770000Y-75250000D01*
X115280000Y-79500000D02*
X115280000Y-78030000D01*
X115770000Y-75250000D02*
X115770000Y-71230000D01*
X115250000Y-78000000D02*
X115770000Y-77480000D01*
X116250000Y-70750000D02*
X116250000Y-69162500D01*
%TO.N,/HSE_IN*%
X105250000Y-63500000D02*
X103500000Y-63500000D01*
X107960000Y-62960000D02*
X106250000Y-62960000D01*
X110337500Y-64250000D02*
X109250000Y-64250000D01*
X103500000Y-63500000D02*
X102650000Y-62650000D01*
X109250000Y-64250000D02*
X107960000Y-62960000D01*
X105790000Y-62960000D02*
X105250000Y-63500000D01*
X106250000Y-62960000D02*
X105790000Y-62960000D01*
X102650000Y-62650000D02*
X102650000Y-62400000D01*
%TO.N,/HSE_OUT*%
X106250000Y-64960000D02*
X106210000Y-65000000D01*
%TO.N,/NRST*%
X112000000Y-65250000D02*
X112500000Y-65750000D01*
X110337500Y-65250000D02*
X112000000Y-65250000D01*
X111000000Y-68500000D02*
X111000000Y-70960000D01*
X111000000Y-70960000D02*
X111540000Y-71500000D01*
X112500000Y-67000000D02*
X111000000Y-68500000D01*
X112500000Y-65750000D02*
X112500000Y-67000000D01*
%TD*%
%TA.AperFunction,Conductor*%
%TO.N,GND*%
G36*
X128496091Y-67509439D02*
G01*
X128536319Y-67536319D01*
X128963681Y-67963681D01*
X128990561Y-68003909D01*
X129000000Y-68051362D01*
X129000000Y-69500000D01*
X129236909Y-69973818D01*
X129250000Y-70029272D01*
X129250000Y-70750000D01*
X132198638Y-70750000D01*
X132246091Y-70759439D01*
X132286319Y-70786319D01*
X132713681Y-71213681D01*
X132740561Y-71253909D01*
X132750000Y-71301362D01*
X132750000Y-71698638D01*
X132740561Y-71746091D01*
X132713681Y-71786319D01*
X132341819Y-72158181D01*
X132301591Y-72185061D01*
X132254138Y-72194500D01*
X129623999Y-72194500D01*
X129544933Y-72204909D01*
X129526512Y-72209844D01*
X129482930Y-72221523D01*
X129436966Y-72240561D01*
X129389516Y-72250000D01*
X129250000Y-72250000D01*
X129250000Y-72389516D01*
X129240561Y-72436969D01*
X129221524Y-72482928D01*
X129204909Y-72544933D01*
X129194500Y-72623999D01*
X129194500Y-73126000D01*
X129177887Y-73188000D01*
X129132500Y-73233387D01*
X129070500Y-73250000D01*
X127179500Y-73250000D01*
X127117500Y-73233387D01*
X127072113Y-73188000D01*
X127055500Y-73126000D01*
X127055500Y-70373999D01*
X127045090Y-70294933D01*
X127045090Y-70294930D01*
X127028477Y-70232930D01*
X127009438Y-70186966D01*
X127000000Y-70139516D01*
X127000000Y-69750000D01*
X126624000Y-69750000D01*
X126562000Y-69733387D01*
X126516613Y-69688000D01*
X126500000Y-69626000D01*
X126500000Y-67624000D01*
X126516613Y-67562000D01*
X126562000Y-67516613D01*
X126624000Y-67500000D01*
X128448638Y-67500000D01*
X128496091Y-67509439D01*
G37*
%TD.AperFunction*%
%TD*%
%TA.AperFunction,Conductor*%
%TO.N,VBUS*%
G36*
X131530412Y-64764203D02*
G01*
X131574836Y-64803560D01*
X131595882Y-64859054D01*
X131613763Y-65006319D01*
X131669780Y-65154024D01*
X131768070Y-65296423D01*
X131768031Y-65296449D01*
X131788575Y-65324368D01*
X131799500Y-65375261D01*
X131799500Y-65376000D01*
X131782887Y-65438000D01*
X131737500Y-65483387D01*
X131675500Y-65500000D01*
X127750000Y-65500000D01*
X126000000Y-66250000D01*
X126000000Y-69410626D01*
X125989407Y-69460775D01*
X125959437Y-69502355D01*
X125915213Y-69528262D01*
X124564734Y-69978422D01*
X124500000Y-70000000D01*
X124500000Y-70139516D01*
X124490561Y-70186966D01*
X124480595Y-70211028D01*
X124471524Y-70232928D01*
X124454909Y-70294933D01*
X124444500Y-70373999D01*
X124444500Y-72376000D01*
X124427887Y-72438000D01*
X124382500Y-72483387D01*
X124320500Y-72500000D01*
X122624000Y-72500000D01*
X122562000Y-72483387D01*
X122516613Y-72438000D01*
X122500000Y-72376000D01*
X122500000Y-70099469D01*
X122512383Y-70045454D01*
X122547058Y-70002227D01*
X122597101Y-69978422D01*
X122597100Y-69978422D01*
X124750000Y-69500000D01*
X124750000Y-66082667D01*
X124759406Y-66035294D01*
X124786197Y-65995108D01*
X124826308Y-65968205D01*
X127727109Y-64759538D01*
X127774801Y-64750000D01*
X131472786Y-64750000D01*
X131530412Y-64764203D01*
G37*
%TD.AperFunction*%
%TA.AperFunction,Conductor*%
G36*
X133146119Y-64759439D02*
G01*
X133186347Y-64786319D01*
X133277232Y-64877204D01*
X133277233Y-64877204D01*
X133277235Y-64877206D01*
X133380009Y-64922585D01*
X133405135Y-64925500D01*
X134794864Y-64925499D01*
X134794867Y-64925499D01*
X134809940Y-64923750D01*
X134819991Y-64922585D01*
X134825913Y-64919969D01*
X134886014Y-64909809D01*
X134943695Y-64929513D01*
X134985019Y-64974320D01*
X135000000Y-65033404D01*
X135000000Y-65376000D01*
X134983387Y-65438000D01*
X134938000Y-65483387D01*
X134876000Y-65500000D01*
X132824500Y-65500000D01*
X132762500Y-65483387D01*
X132717113Y-65438000D01*
X132700500Y-65376000D01*
X132700500Y-65375261D01*
X132711425Y-65324368D01*
X132731968Y-65296449D01*
X132731930Y-65296423D01*
X132766658Y-65246109D01*
X132830220Y-65154024D01*
X132886237Y-65006319D01*
X132904118Y-64859053D01*
X132925164Y-64803560D01*
X132969588Y-64764203D01*
X133027214Y-64750000D01*
X133098666Y-64750000D01*
X133146119Y-64759439D01*
G37*
%TD.AperFunction*%
%TD*%
%TA.AperFunction,Conductor*%
%TO.N,+3.3V*%
G36*
X126688000Y-70266613D02*
G01*
X126733387Y-70312000D01*
X126750000Y-70374000D01*
X126750000Y-74250000D01*
X129500000Y-74250000D01*
X129500000Y-72624000D01*
X129516613Y-72562000D01*
X129562000Y-72516613D01*
X129624000Y-72500000D01*
X132376000Y-72500000D01*
X132438000Y-72516613D01*
X132483387Y-72562000D01*
X132500000Y-72624000D01*
X132500000Y-79376000D01*
X132483387Y-79438000D01*
X132438000Y-79483387D01*
X132376000Y-79500000D01*
X123124000Y-79500000D01*
X123062000Y-79483387D01*
X123016613Y-79438000D01*
X123000000Y-79376000D01*
X123000000Y-73821960D01*
X123016751Y-73759721D01*
X123062479Y-73714298D01*
X123624985Y-73392865D01*
X124750000Y-72750000D01*
X124750000Y-71250000D01*
X124750000Y-70374000D01*
X124766613Y-70312000D01*
X124812000Y-70266613D01*
X124874000Y-70250000D01*
X126626000Y-70250000D01*
X126688000Y-70266613D01*
G37*
%TD.AperFunction*%
%TD*%
M02*
